<?xml version="1.0" encoding="utf-8"?>
<!-- Generator: Adobe Illustrator 16.0.0, SVG Export Plug-In . SVG Version: 6.00 Build 0)  -->
<!DOCTYPE svg PUBLIC "-//W3C//DTD SVG 1.1//EN" "http://www.w3.org/Graphics/SVG/1.1/DTD/svg11.dtd">
<svg version="1.1" id="Layer_1" xmlns="http://www.w3.org/2000/svg" xmlns:xlink="http://www.w3.org/1999/xlink" x="0px" y="0px"
	 width="1190.55px" height="841.89px" viewBox="0 0 1190.55 841.89" enable-background="new 0 0 1190.55 841.89"
	 xml:space="preserve">
<path d="M434.582,262.735c-2.194,0-4.333,0.348-6.414,1.041c-2.081,0.693-3.995,1.728-5.743,3.105s-3.281,3.086-4.601,5.127
	c-1.319,2.041-2.318,4.419-2.995,7.134c-0.672,2.695-0.88,5.035-0.623,7.017c0.257,1.982,0.915,3.623,1.976,4.922
	c1.06,1.299,2.486,2.261,4.278,2.885c1.791,0.625,3.883,0.938,6.274,0.938c0.652,0,1.354-0.034,2.102-0.103
	c0.749-0.068,1.509-0.166,2.282-0.293c0.773-0.126,1.531-0.273,2.275-0.439c0.743-0.166,1.416-0.347,2.018-0.542l-1.052,4.219
	c-1.265,0.449-2.689,0.796-4.273,1.04c-1.584,0.244-3.177,0.367-4.779,0.367c-3.262,0-6.04-0.454-8.333-1.363
	c-2.293-0.908-4.083-2.211-5.368-3.911c-1.285-1.7-2.062-3.775-2.33-6.226c-0.268-2.451-0.015-5.229,0.76-8.335
	c0.76-3.046,1.922-5.849,3.488-8.408c1.566-2.558,3.452-4.755,5.657-6.592c2.206-1.835,4.682-3.267,7.428-4.292
	c2.746-1.025,5.672-1.538,8.777-1.538c0.82,0,1.622,0.034,2.406,0.103c0.784,0.069,1.526,0.167,2.227,0.293s1.342,0.278,1.923,0.454
	c0.581,0.175,1.072,0.361,1.473,0.556l-1.052,4.22c-1.089-0.392-2.303-0.718-3.641-0.982
	C437.387,262.868,436.006,262.735,434.582,262.735z"/>
<path d="M458.574,295.343h-0.117c-0.488,0.468-1.072,0.933-1.753,1.391c-0.681,0.459-1.438,0.87-2.27,1.231
	c-0.832,0.361-1.714,0.649-2.647,0.864c-0.933,0.214-1.896,0.322-2.893,0.322c-1.348,0-2.533-0.201-3.557-0.601
	s-1.844-0.985-2.462-1.757c-0.618-0.771-1.013-1.714-1.185-2.828c-0.172-1.112-0.083-2.373,0.268-3.779
	c0.346-1.386,0.904-2.627,1.675-3.721c0.771-1.093,1.7-2.021,2.789-2.783c1.088-0.762,2.313-1.348,3.676-1.758
	c1.362-0.411,2.805-0.615,4.328-0.615c1.44,0.019,2.747,0.146,3.918,0.381c1.172,0.234,2.193,0.527,3.063,0.878h0.117l0.482-1.933
	c0.19-0.762,0.309-1.436,0.357-2.022c0.048-0.585,0.012-1.103-0.111-1.553c-0.274-0.938-0.891-1.713-1.851-2.329
	c-0.96-0.615-2.387-0.922-4.282-0.922c-1.406,0-2.762,0.131-4.068,0.395c-1.306,0.263-2.633,0.63-3.98,1.098l0.949-3.808
	c0.527-0.234,1.134-0.454,1.82-0.66c0.686-0.205,1.398-0.381,2.138-0.527c0.74-0.147,1.51-0.259,2.311-0.337
	c0.801-0.078,1.592-0.116,2.373-0.116c2.813,0,4.988,0.497,6.527,1.493c1.539,0.997,2.494,2.315,2.867,3.955
	c0.137,0.625,0.175,1.314,0.115,2.065c-0.061,0.752-0.203,1.578-0.427,2.476l-4.631,18.574h-3.809L458.574,295.343z
	 M460.619,286.202c-0.778-0.234-1.714-0.459-2.807-0.674c-1.094-0.215-2.329-0.332-3.705-0.352c-1.925,0-3.534,0.41-4.827,1.23
	c-1.293,0.82-2.152,2.081-2.575,3.78c-0.214,0.859-0.266,1.611-0.154,2.256c0.112,0.645,0.353,1.177,0.725,1.597
	c0.371,0.42,0.857,0.732,1.458,0.937c0.6,0.206,1.27,0.308,2.008,0.308c0.973,0,1.912-0.142,2.818-0.425
	c0.907-0.282,1.735-0.62,2.483-1.01c0.749-0.39,1.401-0.781,1.956-1.172c0.553-0.391,0.964-0.693,1.232-0.908L460.619,286.202z"/>
<path d="M499.121,284.181c-0.482,1.933-1.101,3.647-1.856,5.142s-1.585,2.798-2.489,3.911c-0.907,1.113-1.875,2.046-2.905,2.798
	c-1.032,0.752-2.056,1.358-3.072,1.816c-1.017,0.46-2.017,0.792-3,0.996c-0.983,0.206-1.886,0.308-2.709,0.308
	c-1.707,0-3.119-0.279-4.235-0.835c-1.117-0.557-2.04-1.381-2.767-2.476h-0.086l-4.04,16.202h-4.455l10.336-41.455h3.428
	l0.178,3.164h0.088c0.352-0.39,0.773-0.771,1.267-1.143c0.493-0.371,1.128-0.767,1.907-1.187c0.779-0.419,1.681-0.786,2.706-1.099
	c1.025-0.312,2.094-0.468,3.208-0.468c1.563,0,3.005,0.263,4.329,0.79c1.324,0.528,2.398,1.367,3.225,2.52
	c0.826,1.153,1.351,2.632,1.574,4.438C499.974,279.41,499.764,281.603,499.121,284.181z M494.36,284.239
	c0.404-1.621,0.595-3.076,0.573-4.365c-0.022-1.29-0.264-2.388-0.725-3.296c-0.461-0.908-1.132-1.606-2.012-2.094
	c-0.88-0.488-1.979-0.732-3.294-0.732c-0.943,0-1.834,0.127-2.673,0.381c-0.84,0.254-1.623,0.576-2.349,0.967
	c-0.725,0.391-1.37,0.811-1.934,1.259c-0.564,0.45-1.027,0.85-1.389,1.201l-3.63,14.562c0.718,0.976,1.622,1.748,2.708,2.313
	c1.086,0.567,2.337,0.85,3.751,0.85c0.864,0,1.817-0.161,2.861-0.483c1.042-0.323,2.076-0.898,3.098-1.729
	c1.021-0.829,1.975-1.958,2.861-3.384C493.091,288.263,493.81,286.446,494.36,284.239z"/>
<path d="M511.092,277.999c-0.19,0.762-0.184,1.387,0.019,1.875c0.204,0.488,0.538,0.884,1.008,1.187
	c0.468,0.303,1.037,0.551,1.705,0.747c0.667,0.196,1.363,0.372,2.088,0.528c0.992,0.234,1.92,0.494,2.785,0.776
	c0.865,0.284,1.623,0.708,2.275,1.274c0.651,0.567,1.099,1.333,1.346,2.3c0.246,0.967,0.176,2.222-0.208,3.765
	c-0.351,1.406-0.934,2.651-1.751,3.735c-0.817,1.084-1.815,1.993-2.994,2.725s-2.509,1.289-3.991,1.67
	c-1.481,0.381-3.052,0.571-4.712,0.571c-1.016,0-1.925-0.054-2.729-0.161c-0.803-0.108-1.502-0.245-2.095-0.41
	c-0.593-0.166-1.092-0.337-1.498-0.513c-0.405-0.176-0.735-0.341-0.989-0.499l0.949-3.808c1.033,0.469,2.082,0.839,3.146,1.113
	c1.063,0.274,2.275,0.41,3.637,0.41c1.074,0,2.066-0.098,2.979-0.292c0.911-0.195,1.726-0.484,2.445-0.865
	c0.718-0.38,1.317-0.858,1.795-1.436c0.479-0.575,0.814-1.245,1.004-2.006c0.195-0.782,0.203-1.426,0.022-1.934
	c-0.18-0.508-0.488-0.928-0.923-1.26c-0.435-0.332-0.966-0.604-1.593-0.82c-0.627-0.215-1.293-0.41-1.996-0.586
	c-0.924-0.214-1.854-0.468-2.787-0.762c-0.934-0.293-1.747-0.703-2.44-1.23c-0.693-0.528-1.18-1.245-1.462-2.154
	c-0.281-0.908-0.244-2.074,0.111-3.5c0.365-1.465,0.945-2.734,1.741-3.809c0.795-1.074,1.729-1.962,2.803-2.666
	s2.25-1.231,3.529-1.583c1.279-0.351,2.583-0.526,3.911-0.526c1.543,0,2.937,0.146,4.183,0.438c1.245,0.294,2.349,0.664,3.311,1.113
	l-0.964,3.867c-1.032-0.448-2.099-0.815-3.2-1.098c-1.101-0.284-2.269-0.434-3.503-0.454c-1.048,0-1.97,0.107-2.768,0.322
	c-0.797,0.215-1.48,0.513-2.052,0.894c-0.572,0.381-1.031,0.83-1.379,1.347C511.5,276.803,511.248,277.374,511.092,277.999z"/>
<path d="M534.069,305.747h39.021l-2.084,8.361h-48.292L541.689,238h46.188l-2.086,8.361h-36.916l-6.126,24.574h32.821l-2.084,8.361
	h-32.821L534.069,305.747z"/>
<path d="M585.559,290.321h0.088c0.668-0.644,1.38-1.245,2.134-1.802c0.754-0.556,1.564-1.044,2.431-1.465
	c0.867-0.42,1.783-0.747,2.75-0.981c0.967-0.235,1.987-0.351,3.061-0.351c1.27,0,2.418,0.175,3.443,0.526
	c1.025,0.352,1.851,0.918,2.477,1.699c0.626,0.782,1.021,1.802,1.185,3.062c0.165,1.26,0.018,2.809-0.439,4.644l-4.646,18.633H593.5
	l4.463-17.9c0.599-2.402,0.566-4.131-0.099-5.186s-1.886-1.582-3.664-1.582c-1.563,0-3.185,0.435-4.866,1.304
	c-1.682,0.869-3.24,2.065-4.674,3.588l-4.93,19.776h-4.541l6.939-27.832h3.516L585.559,290.321z"/>
<path d="M624.732,285.722c1.207,0.019,2.223,0.175,3.048,0.468c0.825,0.293,1.506,0.66,2.04,1.099
	c0.535,0.439,0.939,0.874,1.213,1.304c0.274,0.429,0.448,0.771,0.521,1.025h0.117l1.726-3.164h3.428l-7.348,29.472
	c-0.536,2.149-1.354,4.019-2.453,5.61c-1.101,1.592-2.417,2.916-3.949,3.97s-3.257,1.84-5.173,2.358
	c-1.916,0.518-3.958,0.776-6.126,0.776c-1.836,0-3.437-0.161-4.802-0.483s-2.401-0.708-3.11-1.157l0.957-3.838
	c0.596,0.274,1.184,0.503,1.762,0.689c0.579,0.186,1.185,0.341,1.817,0.469c0.633,0.126,1.288,0.219,1.967,0.278
	s1.438,0.088,2.277,0.088c3.262,0,5.952-0.762,8.07-2.286c2.118-1.523,3.566-3.848,4.346-6.972l0.928-3.721H625.9
	c-1.269,1.095-2.632,1.919-4.089,2.476c-1.457,0.556-3.035,0.835-4.734,0.835c-0.781,0-1.6-0.088-2.454-0.264
	c-0.854-0.176-1.679-0.474-2.473-0.894c-0.794-0.419-1.515-0.977-2.161-1.67c-0.648-0.693-1.154-1.562-1.519-2.607
	c-0.364-1.045-0.56-2.281-0.585-3.707c-0.025-1.425,0.196-3.076,0.664-4.951c0.647-2.597,1.561-4.849,2.738-6.752
	c1.178-1.905,2.498-3.481,3.963-4.732c1.464-1.25,3.015-2.182,4.652-2.798C621.541,286.029,623.15,285.722,624.732,285.722z
	 M613.391,300.545c-0.546,2.188-0.728,3.975-0.546,5.361c0.182,1.387,0.581,2.466,1.199,3.238c0.619,0.771,1.371,1.299,2.258,1.582
	c0.886,0.283,1.759,0.425,2.618,0.425c1.406,0,2.795-0.283,4.167-0.85c1.371-0.565,2.648-1.338,3.829-2.313l3.63-14.562
	c-0.166-0.352-0.418-0.751-0.755-1.201c-0.337-0.448-0.756-0.864-1.257-1.245s-1.1-0.703-1.795-0.967
	c-0.696-0.263-1.493-0.395-2.392-0.395c-1.348,0-2.602,0.268-3.761,0.806c-1.159,0.537-2.205,1.285-3.137,2.241
	c-0.932,0.957-1.741,2.105-2.426,3.442C614.339,297.445,613.794,298.925,613.391,300.545z"/>
<path d="M638.969,314.286l6.938-27.832h4.541l-6.938,27.832H638.969z M647.405,279.98l1.264-5.069h4.541l-1.264,5.069H647.405z"/>
<path d="M662.961,290.321h0.088c0.669-0.644,1.38-1.245,2.134-1.802c0.754-0.556,1.564-1.044,2.431-1.465
	c0.866-0.42,1.783-0.747,2.75-0.981c0.967-0.235,1.986-0.351,3.061-0.351c1.27,0,2.418,0.175,3.443,0.526
	c1.025,0.352,1.851,0.918,2.477,1.699c0.626,0.782,1.021,1.802,1.185,3.062c0.165,1.26,0.018,2.809-0.439,4.644l-4.646,18.633
	h-4.541l4.463-17.9c0.599-2.402,0.566-4.131-0.099-5.186s-1.886-1.582-3.663-1.582c-1.563,0-3.185,0.435-4.866,1.304
	c-1.682,0.869-3.239,2.065-4.674,3.588l-4.931,19.776h-4.541l6.938-27.832h3.516L662.961,290.321z"/>
<path d="M698.249,311.063c1.504,0,2.906-0.123,4.207-0.367c1.301-0.244,2.623-0.59,3.965-1.04l-0.941,3.779
	c-1.118,0.489-2.445,0.875-3.98,1.158c-1.535,0.283-3.143,0.425-4.822,0.425c-1.992,0-3.799-0.254-5.421-0.762
	c-1.621-0.508-2.931-1.327-3.927-2.46c-0.994-1.132-1.627-2.612-1.896-4.438c-0.269-1.826-0.081-4.028,0.562-6.606
	c0.634-2.54,1.533-4.741,2.699-6.606c1.166-1.866,2.49-3.423,3.971-4.673c1.48-1.25,3.059-2.187,4.734-2.812
	c1.676-0.625,3.341-0.937,4.997-0.937c1.559,0,2.95,0.258,4.176,0.776c1.225,0.517,2.195,1.333,2.912,2.446
	c0.716,1.113,1.142,2.548,1.278,4.307c0.137,1.758-0.102,3.867-0.715,6.328c-0.059,0.234-0.109,0.435-0.15,0.601
	s-0.145,0.542-0.311,1.127h-19.219c-0.443,1.778-0.551,3.286-0.322,4.527c0.228,1.24,0.709,2.247,1.444,3.018
	c0.735,0.771,1.685,1.333,2.847,1.684S696.804,311.063,698.249,311.063z M701.2,289.618c-1.048,0-2.073,0.205-3.075,0.615
	c-1.003,0.41-1.927,0.966-2.775,1.669c-0.847,0.703-1.597,1.528-2.248,2.476c-0.652,0.947-1.161,1.958-1.527,3.032h14.238
	c0.272-1.094,0.384-2.114,0.333-3.062c-0.05-0.948-0.265-1.773-0.644-2.476s-0.923-1.255-1.634-1.654
	C703.157,289.818,702.268,289.618,701.2,289.618z"/>
<g>
	<line x1="394.5" y1="300.37" x2="530" y2="300.37"/>
	<g>
		<g>
			<g>
				<path d="M529.842,300.106c0.2,0.03,0.128-0.022,0.158-0.025C529.666,300.04,529.85,300.121,529.842,300.106z"/>
				<polygon points="526.54,299.98 526.598,299.939 526.111,300.023 				"/>
				<path d="M523.451,299.792c0.292,0.285,1.119,0.017,1.669,0.141l0.091,0.057l0.249-0.165
					C524.791,299.797,523.922,299.893,523.451,299.792z"/>
				<path d="M521.805,299.012c0.102,0.135-0.356,0.07,0.384,0.08c-0.034-0.019-0.047-0.026-0.069-0.038
					C522.053,299.048,521.961,299.038,521.805,299.012z"/>
				<path d="M522.119,299.054C522.444,299.081,521.906,298.929,522.119,299.054L522.119,299.054z"/>
				<path d="M520.617,298.975l0.428-0.077c-0.089-0.086-0.471-0.146-0.329-0.188C520.277,298.726,520.367,298.82,520.617,298.975z"
					/>
				<path d="M520.211,299.198l0.222-0.035C520.394,299.126,520.335,299.109,520.211,299.198z"/>
				<path d="M520.904,299.095l-0.471,0.068c0.062,0.062,0.068,0.175,0.216-0.022C520.611,299.242,520.704,299.149,520.904,299.095z"
					/>
				<path d="M521.17,299.17c0.24,0.094,0.551,0.161,0.121,0.243C522.111,299.427,521.99,299.201,521.17,299.17z"/>
				<path d="M523.293,300.073l0.321,0.089l0.278-0.083C523.754,300.121,523.273,299.985,523.293,300.073z"/>
				<path d="M517.949,298.522c-0.027,0.084,0.144,0.245,0.176,0.356l0.316-0.072C518.278,298.735,517.97,298.653,517.949,298.522z"
					/>
				<path d="M518.125,298.878l-0.473,0.114C518.074,299.04,518.151,298.976,518.125,298.878z"/>
				<polygon points="520.135,299.591 520.912,299.369 519.985,299.587 				"/>
				<polygon points="516.141,298.338 516.409,298.145 515.931,298.434 				"/>
				<path d="M514.941,298.273c0.198-0.172-0.272-0.351-0.063-0.448c-0.326,0-0.604,0.139-0.854,0.271
					C514.291,298.034,514.574,298.085,514.941,298.273z"/>
				<path d="M513.604,298.286c0.133-0.039,0.271-0.113,0.42-0.19C513.883,298.129,513.744,298.183,513.604,298.286z"/>
				<path d="M516.845,298.89c-0.037-0.058-0.107-0.209-0.373-0.294l0.186,0.277C516.715,298.878,516.779,298.884,516.845,298.89z"/>
				<path d="M516.665,298.881l-0.007-0.009c-0.202-0.021-0.342-0.036-0.402-0.042C516.308,298.836,516.431,298.852,516.665,298.881z
					"/>
				<path d="M516.892,298.895l-0.047-0.004C516.863,298.917,516.874,298.926,516.892,298.895z"/>
				<path d="M518.894,299.319c-0.278,0.111-0.858,0.235-0.297,0.458C518.796,299.624,518.475,299.493,518.894,299.319z"/>
				<path d="M517.123,299.23l0.503,0.086c-0.01-0.066-0.101-0.168,0.037-0.228L517.123,299.23z"/>
				<polygon points="516.877,299.299 517.123,299.23 516.937,299.198 				"/>
				<path d="M514.465,298.624c-0.217,0.109-0.455,0.105-0.723,0.109c0.288,0.076,0.585,0.125,0.867,0.141
					C514.649,298.786,514.773,298.635,514.465,298.624z"/>
				<path d="M515.534,298.775l-0.048,0.012C515.516,298.813,515.54,298.821,515.534,298.775z"/>
				<polygon points="511.1,298.579 511.142,298.639 511.152,298.584 				"/>
				<path d="M514.658,298.929c0.216,0.067,0.346,0.005,0.469-0.073c-0.162,0.018-0.333,0.026-0.517,0.017
					C514.592,298.913,514.588,298.939,514.658,298.929z"/>
				<path d="M512.867,298.373c0.113,0.072,0.24,0.134,0.375,0.191C513.131,298.463,512.906,298.297,512.867,298.373z"/>
				<path d="M515.413,298.706l0.032-0.01C515.375,298.632,515.383,298.662,515.413,298.706z"/>
				<path d="M515.413,298.706c-0.111,0.032-0.199,0.095-0.287,0.15c0.131-0.014,0.253-0.036,0.359-0.069
					C515.459,298.766,515.432,298.734,515.413,298.706z"/>
				<path d="M510.299,300.654c0.038-0.31,0.607-0.582,1.098-0.262c0.483-0.222,0.167-1.178-0.254-1.753
					c-0.015,0.13-0.015,0.248-0.512,0.406c0.174,0.175,1.103,0.419,0.684,0.675c-0.658,0.142-0.54-0.116-0.859-0.286
					c0.272,0.382-0.837,0.54-0.694,1.114l0.577-0.2C510.348,300.435,510.139,300.575,510.299,300.654z"/>
				<path d="M512.089,298.72l0.205-0.025c-0.233-0.063-0.4-0.187-0.708-0.438c-0.34,0.122-0.411,0.229-0.434,0.327l1.007,0.096
					L512.089,298.72z"/>
				<path d="M513.211,298.746c-0.16,0.293-0.651,0.406-0.35,0.75c0.6-0.002,0.42-0.24,0.779-0.355
					c-0.969,0.031,0.278-0.153-0.422-0.359c0.19-0.041,0.361-0.046,0.523-0.049c-0.175-0.046-0.343-0.102-0.501-0.168l0.022,0.02
					l0.005,0l-0.001,0.005c0.042,0.04,0.055,0.064,0.008,0.039c-0.003,0.003-0.015,0.004-0.021,0.005
					c-0.006,0.042-0.024,0.078-0.043,0.112c-0.281-0.079-0.044-0.082,0.043-0.112c0.003-0.015,0.011-0.028,0.012-0.044l-0.004-0.004
					l-0.97,0.11C512.499,298.75,512.755,298.755,513.211,298.746z"/>
				<path d="M518.079,300.287c-0.03-0.021-0.028-0.039-0.031-0.057C517.985,300.259,517.962,300.28,518.079,300.287z"/>
				<path d="M517.68,300.134c0.071-0.034,0.129-0.132,0.358-0.103c0.199,0.077-0.001,0.117,0.01,0.198
					c0.138-0.065,0.483-0.167,0.05-0.294l-0.069,0.032c-0.39-0.089-0.892-0.426-0.824-0.46
					C517.32,299.742,517.42,299.909,517.68,300.134z"/>
				<path d="M515.418,299.565l-0.808,0.114l0.411,0.256L515,299.788C515.46,299.855,515.361,299.675,515.418,299.565z"/>
				<polygon points="511.007,298.411 511.114,298.075 510.647,298.533 				"/>
				<polygon points="509.958,298.394 509.996,298.087 509.719,298.257 				"/>
				<path d="M450.721,302.059l-0.237,0.075C450.596,302.111,450.668,302.086,450.721,302.059z"/>
				<path d="M452.439,302.111l0.042-0.141C452.401,302.047,452.369,302.104,452.439,302.111z"/>
				<path d="M484.177,297.8c-0.346-0.377-0.732-0.957-0.69-0.5l0.106,0.443C483.834,297.66,484.019,297.706,484.177,297.8z"/>
				<path d="M466.52,300.454l0.101,0.111c0.084-0.125,0.162-0.241,0.233-0.349C466.752,300.289,466.639,300.369,466.52,300.454z"/>
				<path d="M466.276,301.953l-0.456-0.241C465.923,301.794,466.069,301.875,466.276,301.953z"/>
				<path d="M441.335,302.152l-0.277,0.27C441.492,302.434,441.301,302.288,441.335,302.152z"/>
				<path d="M499.206,298.08c-0.298-0.172-0.536-0.25-0.744-0.277C498.821,298.058,499.111,298.425,499.206,298.08z"/>
				<path d="M451.397,298.773c-0.146,0.059-0.208,0.123-0.203,0.192C451.343,298.91,451.428,298.849,451.397,298.773z"/>
				<path d="M497.6,297.777c0.053,0.044,0.104,0.067,0.158,0.105c0.218-0.065,0.438-0.116,0.704-0.08
					C498.196,297.613,497.893,297.49,497.6,297.777z"/>
				<path d="M407.299,301.026l-0.077-0.016C407.214,301.026,407.249,301.027,407.299,301.026z"/>
				<path d="M397.383,300.105c0.101-0.004,0.258-0.009,0.407-0.015C397.717,300.087,397.594,300.091,397.383,300.105z"/>
				<path d="M505.734,298.015C505.957,298.002,505.769,297.976,505.734,298.015L505.734,298.015z"/>
				<path d="M506.816,299.519c-0.047,0.041-0.083,0.092-0.089,0.177C506.746,299.607,506.777,299.552,506.816,299.519z"/>
				<path d="M495.382,300.435l-0.019-0.001C495.43,300.519,495.418,300.503,495.382,300.435z"/>
				<path d="M506.069,298.202c-0.083-0.05-0.18-0.093-0.285-0.125C505.83,298.108,505.917,298.149,506.069,298.202z"/>
				<path d="M506.023,298.023c0.078,0.018,0.138,0.032,0.195,0.046C506.247,298.009,506.222,297.969,506.023,298.023z"/>
				<path d="M505.423,298.021c0.127,0,0.247,0.023,0.361,0.056c-0.044-0.027-0.062-0.049-0.05-0.062
					C505.668,298.017,505.576,298.018,505.423,298.021z"/>
				<path d="M425.536,300.988c-0.015-0.006-0.029-0.012-0.048-0.02C425.264,301.049,425.362,301.037,425.536,300.988z"/>
				<path d="M478.382,302.346c0.011-0.004,0.016-0.015,0.025-0.02l-0.033-0.016L478.382,302.346z"/>
				<path d="M477.583,302.642c0.34-0.516,0.534-0.45,0.792-0.331l-0.265-1.229L477.583,302.642z"/>
				<path d="M446.606,302.061l0.562,0.277c-0.678,0.419-1.168,0.251-0.641,0.638c0.079-0.918,2.183-0.026,2.261-0.964l0.37,0.207
					c-0.106-0.012-0.123,0.044-0.228,0.032c0.72,0.472,0.535-0.675,1.462-0.526c0.323,0.079,0.549,0.223,0.329,0.334l0.72-0.227
					c0.209,0.022,0.159,0.191-0.05,0.168l1.099-0.058l-0.008,0.029c0.157-0.152,0.512-0.386,0.685-0.486
					c0.279,0.146-0.14,0.104-0.068,0.228l0.608-0.233c0.248,0.262-0.256,0.506-0.677,0.461c0.568,1.003,0.505-0.244,1.731,0.363
					l-0.574,0.116c0.37,0.579,0.818,0.383,1.468,0.76c-0.154-0.196-1.3-0.934-0.64-1.172c0.186,0.079,0.432,0.121,0.788-0.079
					c0.003,0.363,0.351,0.28,0.786,0.268l-0.029,0.483c0.47-0.129,0.433-0.377,0.71-0.592c0.524,0.057,0.633,0.439,0.756,0.762
					c0.84,0.097-0.58-0.622,0.414-0.695c0.698,0.201,1.189,0.011,2.024-0.278c0.489,0.181-0.085,0.307,0.09,0.453l0.433-0.395
					c0.106,0.011,0.072,0.135,0.055,0.197c0.365-0.151,0.03-0.505,0.604-0.637c0.155-0.563,1.178,0.839,1.889,0.207
					c0.175,0.15-0.084,0.316-0.031,0.518c0.975-0.409,0.835-0.294,1.636-0.864l0.682,0.356c-0.501-0.406,0.139-0.867,0.7-1.258
					c-0.178-0.194-0.33-0.364-0.431-0.444l0.895-0.293c0.108,0.088,0.018,0.274-0.129,0.499c0.062-0.044,0.119-0.089,0.164-0.13
					c0.32,0.198,0.154,0.512-0.075,0.812c-0.105-0.109-0.214-0.222-0.322-0.333c-0.221,0.326-0.428,0.682-0.381,0.995
					c0.058-0.061,0.17-0.112,0.293-0.141c-0.058,0.088-0.095,0.166-0.068,0.22c0.03,0.057,0.124-0.06,0.27-0.195l0.204,0.603
					l0.049-0.238l1.17,0.404c0.837-0.593,1.566-1.504,2.895-1.767c-0.33,0.463-0.071,0.758-0.089,1.309
					c-0.363-0.586-1.029,0.228-1.718,0.094c0.359,0.067,0.28,0.323,0.189,0.41l1.229-0.496c-0.028,0.448,0.261,0.342,0.582,0.537
					c-0.243-0.897,0.916-0.577,1.416-0.847c0.031,0.307-0.089,0.617-0.699,0.529c0.673,0.702,0.87-1.051,1.53-0.458
					c-0.149,0.005-0.229-0.043-0.288,0.112c0.348-0.269,1.198-0.038,0.998,0.232l-0.148,0.003c0.989,0.131,3.01,0.074,3.157-0.751
					c0.01,0.107-0.129,0.99-0.189,1.153l1.764-2.779c-0.155,0.716,0.441,2.443-0.379,2.832c0.236,0.106,0.527,0.236,1.023-0.009
					c-0.161-0.107-0.4-1.052-0.181-1.116c0.603,0.814,0.418,0.435,1.161,1.141c-0.241-0.161,0.027-1.304,0.407-1.266
					c-0.06,0.172,0.032,1.139-0.107,1.256l0.947-1.124c-0.236,0.204-0.042,0.964,0.17,1.292c-0.099-0.225,0.818,0.034,1.071-0.076
					l-0.401-0.272c1.069,0.189,1.056-1.612,2.117-1.551c-0.128,0.24-0.317,1.475,0.222,1.626c0.247-0.592,1.094-2.869,2.033-3.336
					l0.18,0.342l0.72-0.392c-0.448,0.904-1.707,2.806-2.393,3.534c0.4,0.273,0.111,0.404,0.71,0.378
					c0.211,0.322-0.327,0.484-0.503,0.5l1.395,0.218c-0.063-0.701,1.066-0.7,1.013-1.284l-1.515,0.721
					c-0.061-0.697,0.876-1.983,1.865-1.861c0.251,0.279-0.188,1.248-0.167,1.481c0.128-0.241,0.938-0.461,1.029-0.291l-0.419,0.375
					c0.55,0.262,0.898-0.93,1.559-0.266c0.228,0.044,0.681,0.894,0.721,0.48c-0.372-0.792-0.445-3.258-0.197-3.854
					c0.08,0.054,1.198,0.766,1.459,1.156c0.376,0.618-0.564,1.479-0.244,2.012c0.014-0.189,0.221-0.425,0.308-0.5
					c0.24,0.159-0.099,0.587,0.422,0.496c0.086-0.701,1.059,0.049,0.246-0.594c0.509-0.204,0.541,0.14,1.139,0.103
					c-0.19-0.448,0.537-1.528,1.048-1.719c-0.03,0.175,0.084,0.403,0.14,0.506c1.044,0.062,1.605,0.367,2.579,0.368
					c0.09,0.162,0.56,0.352,0.359,0.64c0.14-0.12,0.269-0.345,0.569-0.364c0.581,0.563-0.67,0.098-0.227,0.779
					c0.038-0.386,0.776-0.542,1.204-0.782c-0.131-0.584-0.988-0.107-1.417,0.14c-0.002-0.824,0.744-1.682,1.762-2.034
					c0.809-0.184,0.351,0.521,0.491,0.41c1.52,0.149,1.294-1.347,2.556-0.752c0.5,0.498,0.022,0.968,0.133,1.321
					c-0.659,0.184-1.011-0.316-1.458-0.302l0.55,0.238c-0.209,0.163-0.649,0.289-0.889,0.144c0.419,0.446,2.567,0.091,3.739,0.478
					c0.208-0.159,0.568-0.32,0.398-0.507l-0.371,0.064c-0.341-0.382,0.698-0.514,0.229-0.695c0.498-0.259,1.055-0.646,1.756-0.419
					l0.131,0.513c-0.015-0.148-0.458-0.314-0.655-0.161c0.292-0.217,1.074,0.706,1.394,0.05l-0.491-0.361
					c0.5-0.243,1.117-0.741,1.738-0.555c-0.282-0.495-0.143,0.05-0.584-0.54c0.382,0.729-1.588-0.113-0.974,0.676
					c-0.453-0.7-0.783-0.32-1.375-0.943c0.018,0.173,0.209,0.339-0.312,0.228c-0.023,0.049-0.079,0.111-0.114,0.147
					c-0.016-0.006-0.021-0.009-0.035-0.015l0.029,0.022c-0.022,0.025-0.024,0.03,0.011,0.007c0.124,0.082,0.225,0.177,0.265,0.275
					c-0.258,0.384-1.087,0.348-1.367,0.551c-0.309-0.093,0.129-0.2-0.04-0.394l-0.418,0.304c-0.042-0.396-0.822-0.694-0.093-0.897
					l-0.656-0.047c-0.386-0.242-0.917-0.359-1.244-0.201c-0.309-0.104-0.781,0.427-0.512,0.112l-1.028,0.223l-0.01-0.106
					c-1.014-0.098-2.088,0.655-3.248-0.169c-0.341,0.102-0.694,0.23-1.266,0.088l-0.111-0.391c-0.438,0.124-1.317-0.428-1.505-0.025
					c-0.473-1.073-2.128-0.287-2.899-0.484l-0.029,0.523c-0.531-0.038-1.04,0.105-1.699,0.313l0.041,0.466
					c-0.568,0.38-1.46-0.339-2.359-0.291c0.061-0.179,0.289-0.132,0.45-0.024c-1.073-1.056-2.265,0.772-3.239,0.013
					c-0.242,0.171-0.418,0.115-0.588,0c0.023-0.001,0.043-0.01,0.061-0.025c-0.025-0.005-0.062-0.006-0.1-0.004
					c-0.107-0.079-0.218-0.17-0.337-0.243c0.101,0.111,0.199,0.203,0.283,0.245c-0.187,0.012-0.471,0.072-0.749,0.192l-0.119-0.494
					c-0.022,0.007-0.041,0.006-0.064,0.015c-0.273-0.178-0.22,0.237-0.074,0.608c-0.14,0.083-0.268,0.182-0.368,0.302
					c-0.222-0.792-0.73,0.276-1.033-0.564c-0.187,0.415-1.398,0.334-1.546,1.189c-0.01-0.111-0.091-0.163,0.059-0.171
					c-0.31-0.094-0.62-0.186-0.898,0.057l-0.132-0.606l-0.677,0.825c-0.411-0.364-0.582-0.57-0.173-1.042
					c-0.986,0.731-0.8,0.287-1.639,0.996l0.041-0.383c-0.3,0.021-0.779,0.536-0.96,0.226c-0.67-0.7-3.318-0.045-5.04-0.636
					c0.334,1.028-0.8-0.444-0.869,0.356c-0.1-0.24-0.34-0.37-0.062-0.588c-0.878,0.259-1.32-0.339-1.927,0.33
					c-0.101-0.234,0.188-0.351,0.099-0.489c-0.07,0.053-0.279,0.212-0.371,0.075c-0.089-0.138,0.129-0.201,0.268-0.309
					c-0.898,0.07-0.988,0.79-1.054,1.463c-0.455-0.313-0.682-0.262-1.01,0.178c-0.158-0.216-0.422-0.438,0.135-0.525
					c-0.314-0.028-1.917-0.283-1.949,0.239c-0.098-0.131-0.438-0.033-0.521,0.027c-0.704-0.023-0.766-0.069-1.458-0.013l0.192,0.082
					c-0.273,0.621-0.575,0.142-1.132,0.221l0.016-0.063c-1.278-0.428-0.552,0.212-1.813-0.273l0.069,0.374
					c-0.118,0.803-1.117-0.465-1.849-0.151l0.264,0.208c-0.4,0.27-1.117-1.063-1.519-1.149c-0.087-0.066,0.138-0.112,0.26-0.165
					c-1.05-0.439-0.136,0.479-0.919,0.601c-0.145-0.252,0.186-0.652-0.341-0.688c-0.263-0.196-1.528,0.845-2.248,0.377
					c0.159,0.188,0.316,0.378-0.048,0.526c-0.557,0.071-1.507-0.691-2.01-0.091c-0.071-0.05-0.098-0.099-0.101-0.145
					c-0.426,0.159-1.385,0.272-1.641,0.587c-0.394-1.146-2.649,0.583-2.64-0.464l-1.311,0.076l0.034-0.104
					c-0.838-0.052-1.134,0.196-1.429,0.439c-0.193-0.065-0.052-0.161-0.036-0.213c-1.224-0.183-1.346-0.13-2.372,0.364l-0.106-0.312
					c-0.278,0.18-1.77-0.452-2.97-0.074c0.012-0.034,0.037-0.092,0.132-0.137c-1.351,0.36-3.234-0.724-3.729,0.32l-0.891,0.263
					c1.153,0.067-0.172,0.441,0.303,0.605c-0.454,0.058-1.172-0.299-0.615-0.354l0.087,0.049c0.205-0.526-1.433-0.17-1.402-0.52
					c-2.269,0.057-4.481-0.169-6.606-0.134l0.245,0.344l-0.742-0.009c-0.195-0.077-0.261-0.263,0.268-0.26
					c-0.278-0.188-0.887,0.182-0.902,0.253c-1.036-0.117,0.404-0.402,0.087-0.405l-0.432,0.036l0.098,0.037
					c-0.35,0.146-0.381,0.29-1.017,0.284c-0.402-0.059-0.207-0.198-0.365-0.208c0.001-0.023-0.053-0.032-0.243-0.004l-0.934-0.006
					l0.374,0.244c-0.414,0.131-0.878,0-0.447,0.278c-0.633-0.426-3.484-0.1-3.873-0.221c-0.58,0.174-1.152,0.176-1.861,0.168
					c0.176,0.042,0.282,0.283-0.33,0.257c0.224-0.492-1.12-0.2-1.614-0.526c0.441,0.213-1.739,0.092-1.045,0.383
					c-0.51-0.029-0.031-0.167-0.418-0.265c-1.214,0.191-2.677-0.047-4.178,0.048c-0.024,0.05,0.228,0.122-0.094,0.201l-0.793-0.226
					c-0.296,0.033-0.273,0.278-0.814,0.128c0.077,0.037,0.191,0.094-0.008,0.112c-2.941-0.128-6.01,0.221-8.997,0.028
					c0.404,0.039,0.135,0.052-0.174,0.061c0.201,0.007-0.004,0.063,0.035,0.097l-1.25-0.065c-0.228,0.089-1.341,0.04-1.471,0.113
					l0.396-0.02c-0.527,0.087,0.737,0.185,0.66,0.31c0.59-0.108,1.555,0.205,2.522,0.048c0.213,0.035-0.182,0.045-0.068,0.082
					c0.245-0.058,0.541-0.069,1.09-0.027l-0.063,0.016c1.542,0.014,2.203,0.1,3.935,0.208l-0.128-0.107
					c0.372,0.022,0.45,0.057,0.625,0.088c0.427-0.153-1.045-0.033-0.656-0.198c0.494,0.225,2.625,0.044,2.958,0.326
					c0.573,0.017-0.167-0.144,0.405-0.128l0.152,0.081l0.145-0.097c0.375,0.024,0.565,0.128,0.579,0.197
					c-0.091-0.011-0.259,0.011-0.357,0.014c0.487,0.11,1.373,0.009,1.54,0.044l-0.55-0.066c1.563-0.042,3.471,0.133,4.98-0.031
					l-0.114-0.077c1.153-0.121,0.923,0.101,2.189,0.059l-0.046,0.018c0.253-0.075,0.592-0.111,0.938-0.096
					c-0.32,0.09,0.602,0.2,0.182,0.299c1.25-0.139,0.619-0.114,1.444-0.421l0.19,0.146c0.281-0.126,0.305-0.196,0.937-0.229
					c-0.519,0.121,0.403,0.231-0.177,0.39c1.326,0.361,1.97-0.304,2.578,0.206c0.609-0.427-1.148-0.26-0.807-0.347
					c-0.286-0.143,0.503-0.316,0.919-0.271c0.424,0.011,0.721,0.572,1.787,0.589c-0.106-0.004-0.113,0.03-0.219,0.026
					c0.399,0.126,0.781-0.144,1.271,0.06c0.274-0.279,0.635,0.03,0.714-0.335l-0.978,0.069c0.555-0.083,1.074-0.511,1.987-0.293
					c-0.071,0.076-0.343,0.172-0.529,0.224c0.267,0.114,0.514-0.066,0.791,0.052c-0.079,0.376-1.188,0.063-1.782,0.33
					c0.287,0.163,1.124-0.242,0.825,0.152c0.429-0.504,1.051,0.094,1.772-0.292l-0.048,0.23c0.114-0.034,0.351-0.138,0.562-0.128
					l-0.381,0.292c0.584-0.244,1.127,0.259,1.688,0.133c-1.174-0.024-0.264-0.294-0.76-0.479c1.448-0.295,0.833,0.643,2.453,0.576
					c-0.219,0.028-0.824-0.171-0.48-0.275c0.309,0.058,0.716,0.163,0.905,0.3c1.074-0.023-0.165-0.263,0.292-0.405
					c0.366,0.315,0.527-0.113,0.998-0.206l0.003,0.261c1.224,0.195,0.324-0.542,1.426-0.319l-0.466,0.361l0.574-0.083l-0.119,0.302
					c0.625-0.21,0.82-0.15,1.432-0.047c-0.143-0.196,0.08-0.496,0.622-0.497c0.369,0.171-0.207,0.26,0.561,0.235
					c-0.173,0.173-0.363,0.385-0.698,0.122c-0.034,0.09-0.171,0.17-0.207,0.258c0.398,0.2,1,0.071,1.279,0.075
					c-0.107-0.013-0.235-0.032-0.301-0.074l1.114-0.368c0.175,0.111,0.036,0.195-0.102,0.276c0.226-0.025,0.382-0.154,0.713-0.173
					c-0.086,0.233-0.065,0.477-0.535,0.572l1.061-0.232c0.071,0.104,0.544,0.298,0.407,0.383c0.588,0.162,1.443-0.427,2.223-0.219
					c0.041-0.047,0.122-0.09,0.288-0.122c0.733,0.071,1.383,0.401,2.251,0.073l0.493,0.474c0.68-0.088-0.667-0.597,0.465-0.747
					c0.802-0.133,0.299,0.404,0.581,0.541c0.399-0.224,1.092-0.7,1.829-0.297C447.025,302.105,446.834,302.03,446.606,302.061z
					 M454.998,302c-0.162,0.073-0.486,0.298-0.605,0.085C454.578,301.679,454.721,301.876,454.998,302z M467.755,301.244
					c-0.121,0.134-0.308,0.064-0.519-0.092C467.39,301.12,467.563,301.137,467.755,301.244z M503.293,298.258l-0.017,0.021
					C502.914,298.095,503.042,298.167,503.293,298.258z M504.047,298.474c0.076-0.058,0.07-0.117,0.038-0.179
					c-0.052,0.107-0.222,0.108-0.414,0.071C503.725,298.481,503.822,298.562,504.047,298.474z M423.158,299.511l0.146,0.053
					C422.974,299.632,423.066,299.575,423.158,299.511z"/>
				<path d="M466.309,301.78c-0.046-0.069-0.059-0.144-0.069-0.22C466.176,301.626,466.174,301.705,466.309,301.78z"/>
				<path d="M441.387,302.103l-0.025-0.004c-0.014,0.018-0.021,0.036-0.026,0.054L441.387,302.103z"/>
				<path d="M492.379,302.397c-0.155-0.07-0.242-0.16-0.299-0.254C492.071,302.266,492.142,302.368,492.379,302.397z"/>
				<path d="M508.038,297.957l-0.482,0.075c0.233-0.006,0.317,0.086,0.435,0.155C507.979,298.094,507.887,297.955,508.038,297.957z"
					/>
				<path d="M512.226,300.401c0.07-0.043,0.149-0.005,0.219-0.048l-0.02-0.162C512.125,300.199,511.916,300.332,512.226,300.401z"/>
				<path d="M508.485,299.284c0.038,0.33,0.341,0.224,0.679,0.172c-0.02,0.001-0.04,0.003-0.06-0.001
					C509.204,299.005,508.843,299.142,508.485,299.284z"/>
				<path d="M509.242,299.447c0.104-0.012,0.21-0.018,0.313,0C509.594,299.269,509.428,299.406,509.242,299.447z"/>
				<path d="M505.002,298.272c0.16,0.098,0.101-0.449,0.191-0.301C505.372,297.525,504.125,298.473,505.002,298.272z"/>
				<polygon points="508.758,300.368 508.637,299.963 508.448,300.289 				"/>
				<path d="M506.09,300.053l0.54,0.121c-0.008-0.071,0.061-0.112,0.145-0.144C506.442,300.014,506.077,299.925,506.09,300.053z"/>
				<path d="M506.774,300.03c0.174,0.01,0.338,0.001,0.435-0.066C507.116,299.968,506.914,299.979,506.774,300.03z"/>
				<polygon points="508.021,300.492 507.86,300.406 507.479,300.376 				"/>
				<path d="M500.285,299.927l-0.589,0.134c-0.06,0.165,0.101,0.265,0.32,0.2C500.156,300.146,500.375,300.085,500.285,299.927z"/>
				<path d="M502.067,301.208c-0.159-0.094-0.17-0.198-0.26-0.351l-0.018,0.577L502.067,301.208z"/>
				<path d="M500.348,301.367c-0.059,0.164-0.855,0.487-0.108,0.435C500.3,301.638,500.89,301.493,500.348,301.367z"/>
				<polygon points="491.468,300.644 491.618,300.636 491.596,299.582 				"/>
				<path d="M483.641,303.148c0.698,0.263,0.166-0.645,0.797-0.322c0.164-0.247-0.516-0.263-0.348-0.475
					C483.668,302.608,483.447,302.456,483.641,303.148z"/>
				<path d="M484.09,302.351c0.067-0.041,0.139-0.09,0.215-0.158C484.183,302.258,484.125,302.308,484.09,302.351z"/>
				<polygon points="395.738,300.083 395.289,300.075 395.579,300.104 				"/>
				<path d="M394.875,300.192l-0.106-0.065l-0.27,0.067C394.602,300.189,394.798,300.178,394.875,300.192z"/>
				<path d="M456.246,303.007l0.034-0.117c-0.07-0.129-0.175-0.141-0.385-0.166L456.246,303.007z"/>
				<polygon points="450.155,302.496 450.26,302.508 450.064,302.089 				"/>
				<path d="M445.043,302.86c0.208,0.024,0.454-0.056,0.663-0.032C445.251,302.884,444.986,302.374,445.043,302.86z"/>
			</g>
		</g>
	</g>
</g>
<g>
	<line x1="710.8" y1="319" x2="522.714" y2="319.5"/>
	<g>
		<g>
			<g>
				<path d="M522.935,319.763c-0.278-0.028-0.178,0.022-0.22,0.026C523.179,319.829,522.922,319.749,522.935,319.763z"/>
				<polygon points="527.519,319.88 527.438,319.921 528.113,319.834 				"/>
				<path d="M531.806,320.055c-0.406-0.284-1.553-0.013-2.317-0.135l-0.126-0.057l-0.344,0.166
					C529.946,320.053,531.152,319.955,531.806,320.055z"/>
				<path d="M534.093,320.828c-0.141-0.135,0.494-0.071-0.533-0.078c0.048,0.019,0.066,0.026,0.097,0.038
					C533.749,320.796,533.876,320.808,534.093,320.828z"/>
				<path d="M533.657,320.787C533.205,320.761,533.953,320.912,533.657,320.787L533.657,320.787z"/>
				<path d="M535.742,320.86l-0.594,0.079c0.124,0.086,0.654,0.145,0.457,0.188C536.215,321.109,536.089,321.014,535.742,320.86z"/>
				<path d="M536.305,320.636l-0.308,0.036C536.051,320.708,536.132,320.726,536.305,320.636z"/>
				<path d="M535.344,320.741l0.653-0.07c-0.086-0.062-0.096-0.175-0.3,0.022C535.75,320.594,535.621,320.687,535.344,320.741z"/>
				<path d="M534.974,320.668c-0.334-0.093-0.765-0.16-0.168-0.243C533.667,320.414,533.836,320.64,534.974,320.668z"/>
				<path d="M532.024,319.772l-0.446-0.088l-0.386,0.084C531.385,319.726,532.052,319.86,532.024,319.772z"/>
				<path d="M539.447,321.307c0.037-0.085-0.201-0.245-0.246-0.357l-0.439,0.073C538.989,321.094,539.417,321.175,539.447,321.307z"
					/>
				<path d="M539.202,320.949l0.657-0.116C539.271,320.788,539.165,320.853,539.202,320.949z"/>
				<polygon points="536.41,320.242 535.331,320.467 536.618,320.246 				"/>
				<polygon points="541.958,321.481 541.585,321.676 542.248,321.386 				"/>
				<path d="M543.623,321.544c-0.275,0.174,0.379,0.349,0.087,0.449c0.453-0.002,0.838-0.144,1.186-0.276
					C544.526,321.78,544.132,321.73,543.623,321.544z"/>
				<path d="M545.479,321.523c-0.184,0.04-0.375,0.115-0.583,0.193C545.092,321.682,545.285,321.627,545.479,321.523z"/>
				<path d="M540.979,320.932c0.051,0.058,0.149,0.208,0.518,0.292l-0.259-0.276C541.158,320.943,541.069,320.938,540.979,320.932z"
					/>
				<path d="M541.228,320.94l0.009,0.009c0.28,0.021,0.475,0.035,0.559,0.041C541.724,320.983,541.553,320.969,541.228,320.94z"/>
				<path d="M540.913,320.928c0.024,0.001,0.042,0.003,0.065,0.004C540.954,320.905,540.938,320.896,540.913,320.928z"/>
				<path d="M538.133,320.511c0.386-0.111,1.19-0.237,0.411-0.459C538.268,320.205,538.714,320.335,538.133,320.511z"/>
				<path d="M540.591,320.593l-0.698-0.083c0.014,0.066,0.14,0.167-0.051,0.229L540.591,320.593z"/>
				<polygon points="540.933,320.523 540.591,320.593 540.85,320.625 				"/>
				<path d="M544.282,321.191c0.301-0.111,0.631-0.108,1.003-0.113c-0.399-0.075-0.813-0.122-1.205-0.137
					C544.026,321.029,543.854,321.181,544.282,321.191z"/>
				<path d="M542.798,321.044c0.021-0.004,0.047-0.009,0.067-0.013C542.824,321.006,542.791,320.997,542.798,321.044z"/>
				<polygon points="548.954,321.222 548.895,321.161 548.882,321.216 				"/>
				<path d="M544.014,320.886c-0.3-0.066-0.479-0.003-0.65,0.075c0.224-0.019,0.462-0.027,0.717-0.02
					C544.106,320.902,544.11,320.875,544.014,320.886z"/>
				<path d="M546.502,321.434c-0.157-0.071-0.334-0.133-0.521-0.189C546.135,321.345,546.447,321.51,546.502,321.434z"/>
				<path d="M542.966,321.112l-0.045,0.01C543.02,321.187,543.008,321.157,542.966,321.112z"/>
				<path d="M542.966,321.112c0.154-0.032,0.276-0.095,0.397-0.151c-0.183,0.015-0.352,0.037-0.499,0.07
					C542.902,321.053,542.939,321.084,542.966,321.112z"/>
				<path d="M550.06,319.144c-0.052,0.309-0.841,0.583-1.523,0.265c-0.669,0.224-0.229,1.179,0.358,1.752
					c0.021-0.13,0.02-0.248,0.709-0.408c-0.242-0.175-1.531-0.415-0.95-0.673c0.913-0.144,0.749,0.115,1.193,0.283
					c-0.378-0.381,1.161-0.542,0.961-1.116l-0.801,0.202C549.993,319.363,550.283,319.221,550.06,319.144z"/>
				<path d="M547.581,321.084l-0.284,0.025c0.324,0.063,0.556,0.186,0.983,0.435c0.472-0.123,0.569-0.23,0.602-0.328l-1.398-0.092
					L547.581,321.084z"/>
				<path d="M546.022,321.062c0.221-0.293,0.902-0.409,0.483-0.751c-0.833,0.005-0.583,0.242-1.08,0.358
					c1.344-0.034-0.386,0.154,0.586,0.358c-0.264,0.042-0.501,0.047-0.726,0.051c0.242,0.045,0.476,0.1,0.696,0.166l-0.031-0.021
					l-0.006,0.001l0.001-0.005c-0.058-0.04-0.078-0.064-0.012-0.039c0.005-0.004,0.021-0.004,0.028-0.005
					c0.009-0.042,0.034-0.077,0.061-0.112c0.389,0.078,0.061,0.082-0.061,0.112c-0.004,0.015-0.015,0.029-0.016,0.044l0.005,0.004
					l1.346-0.114C547.012,321.055,546.655,321.052,546.022,321.062z"/>
				<path d="M539.261,319.54c0.042,0.021,0.04,0.039,0.043,0.057C539.391,319.566,539.424,319.546,539.261,319.54z"/>
				<path d="M539.815,319.691c-0.098,0.035-0.179,0.133-0.498,0.104c-0.276-0.076,0.001-0.117-0.014-0.198
					c-0.191,0.066-0.67,0.168-0.069,0.294l0.095-0.032c0.542,0.089,1.24,0.423,1.145,0.458
					C540.317,320.082,540.177,319.915,539.815,319.691z"/>
				<path d="M542.957,320.252l1.121-0.117l-0.572-0.254l0.029,0.147C542.898,319.961,543.036,320.142,542.957,320.252z"/>
				<polygon points="549.083,321.389 548.935,321.726 549.582,321.266 				"/>
				<polygon points="550.54,321.403 550.487,321.709 550.871,321.539 				"/>
				<path d="M632.756,317.519l0.329-0.076C632.93,317.466,632.829,317.492,632.756,317.519z"/>
				<path d="M630.37,317.473l-0.058,0.141C630.423,317.537,630.468,317.48,630.37,317.473z"/>
				<path d="M586.328,321.9c0.481,0.376,1.019,0.955,0.959,0.499l-0.148-0.443C586.804,322.04,586.546,321.995,586.328,321.9z"/>
				<path d="M610.829,319.182l-0.141-0.11c-0.115,0.125-0.224,0.242-0.323,0.35C610.507,319.349,610.664,319.268,610.829,319.182z"
					/>
				<path d="M611.164,317.682l0.633,0.239C611.654,317.838,611.451,317.759,611.164,317.682z"/>
				<path d="M645.783,317.39l0.384-0.27C645.565,317.11,645.83,317.255,645.783,317.39z"/>
				<path d="M565.464,321.677c0.415,0.171,0.745,0.248,1.034,0.274C565.999,321.698,565.595,321.331,565.464,321.677z"/>
				<path d="M631.826,320.807c0.201-0.06,0.287-0.124,0.281-0.193C631.9,320.67,631.783,320.731,631.826,320.807z"/>
				<path d="M567.694,321.973c-0.073-0.044-0.145-0.067-0.219-0.104c-0.303,0.066-0.607,0.118-0.977,0.083
					C566.867,322.14,567.29,322.262,567.694,321.973z"/>
				<path d="M693.032,318.391l0.106,0.016C693.149,318.392,693.102,318.39,693.032,318.391z"/>
				<path d="M706.799,319.276c-0.138,0.004-0.357,0.01-0.565,0.017C706.335,319.295,706.506,319.291,706.799,319.276z"/>
				<path d="M556.404,321.765C556.095,321.779,556.355,321.805,556.404,321.765L556.404,321.765z"/>
				<path d="M554.897,320.266c0.065-0.04,0.115-0.092,0.123-0.177C554.995,320.177,554.952,320.232,554.897,320.266z"/>
				<path d="M570.766,319.307l0.027,0.001C570.7,319.224,570.716,319.24,570.766,319.307z"/>
				<path d="M555.938,321.58c0.116,0.049,0.25,0.092,0.396,0.124C556.27,321.673,556.149,321.632,555.938,321.58z"/>
				<path d="M556.001,321.758c-0.107-0.018-0.191-0.032-0.271-0.045C555.692,321.773,555.727,321.813,556.001,321.758z"/>
				<path d="M556.834,321.759c-0.177,0-0.342-0.022-0.5-0.055c0.061,0.027,0.086,0.049,0.07,0.061
					C556.495,321.764,556.623,321.762,556.834,321.759z"/>
				<path d="M667.718,318.497c0.021,0.006,0.041,0.012,0.065,0.02C668.096,318.435,667.958,318.447,667.718,318.497z"/>
				<path d="M594.359,317.333c-0.015,0.004-0.022,0.015-0.035,0.02c0.014,0.005,0.032,0.011,0.046,0.016L594.359,317.333z"/>
				<path d="M595.468,317.035c-0.472,0.518-0.741,0.452-1.099,0.334l0.37,1.228L595.468,317.035z"/>
				<path d="M638.468,317.502l-0.78-0.275c0.939-0.421,1.621-0.255,0.888-0.641c-0.107,0.918-3.03,0.034-3.136,0.973l-0.515-0.206
					c0.147,0.011,0.171-0.044,0.316-0.033c-1-0.469-0.74,0.677-2.028,0.531c-0.449-0.077-0.763-0.221-0.457-0.333l-0.999,0.229
					c-0.291-0.021-0.221-0.19,0.069-0.168l-1.525,0.063l0.012-0.029c-0.217,0.152-0.71,0.388-0.95,0.489
					c-0.388-0.145,0.194-0.104,0.095-0.229l-0.844,0.236c-0.345-0.262,0.354-0.507,0.938-0.464
					c-0.791-1.002-0.699,0.245-2.403-0.357l0.797-0.118c-0.516-0.577-1.137-0.379-2.039-0.754c0.214,0.195,1.807,0.929,0.891,1.169
					c-0.258-0.079-0.599-0.119-1.093,0.082c-0.005-0.362-0.487-0.279-1.092-0.265l0.04-0.483c-0.653,0.131-0.601,0.379-0.984,0.595
					c-0.728-0.055-0.88-0.437-1.052-0.76c-1.166-0.094,0.807,0.62-0.573,0.697c-0.97-0.199-1.65-0.006-2.81,0.286
					c-0.679-0.179,0.118-0.307-0.125-0.453l-0.601,0.396c-0.147-0.011-0.101-0.134-0.076-0.197
					c-0.507,0.152-0.041,0.505-0.837,0.639c-0.214,0.564-1.638-0.835-2.622-0.2c-0.244-0.149,0.116-0.316,0.041-0.518
					c-1.352,0.412-1.159,0.297-2.269,0.87l-0.947-0.354c0.697,0.404-0.19,0.867-0.968,1.261c0.247,0.194,0.459,0.362,0.601,0.442
					l-1.241,0.296c-0.15-0.087-0.026-0.274,0.177-0.5c-0.084,0.045-0.164,0.089-0.227,0.13c-0.445-0.197-0.216-0.512,0.102-0.812
					l0.448,0.332c0.306-0.327,0.592-0.684,0.527-0.997c-0.081,0.061-0.235,0.113-0.406,0.142c0.079-0.088,0.131-0.167,0.093-0.22
					c-0.042-0.057-0.171,0.061-0.374,0.196l-0.284-0.602l-0.067,0.238l-1.626-0.4c-1.161,0.596-2.17,1.51-4.014,1.778
					c0.456-0.465,0.096-0.758,0.119-1.31c0.506,0.585,1.429-0.231,2.386-0.1c-0.499-0.066-0.391-0.322-0.264-0.41l-1.704,0.5
					c0.037-0.448-0.363-0.341-0.81-0.534c0.34,0.896-1.27,0.58-1.963,0.853c-0.044-0.307,0.122-0.617,0.969-0.532
					c-0.936-0.699-1.204,1.055-2.122,0.464c0.206-0.006,0.318,0.043,0.399-0.113c-0.482,0.271-1.663,0.042-1.387-0.229l0.206-0.004
					c-1.372-0.128-4.178-0.063-4.38,0.763c-0.014-0.107,0.177-0.99,0.26-1.154c0,0-0.611,0.689-1.221,1.378
					c-0.61,0.704-1.22,1.408-1.22,1.408c0.214-0.717-0.619-2.441,0.518-2.833c-0.327-0.105-0.732-0.234-1.42,0.013
					c0.223,0.107,0.558,1.051,0.254,1.116c-0.838-0.813-0.582-0.434-1.614-1.137c0.334,0.16-0.034,1.304-0.562,1.268
					c0.082-0.172-0.047-1.139,0.146-1.256l-1.311,1.127c0.327-0.205,0.055-0.965-0.24-1.291c0.137,0.225-1.136-0.031-1.486,0.08
					l0.558,0.271c-1.484-0.186-1.461,1.616-2.934,1.559c0.177-0.241,0.436-1.477-0.313-1.626c-0.341,0.593-1.512,2.873-2.813,3.343
					l-0.25-0.342l-0.999,0.394c0.62-0.906,2.361-2.812,3.313-3.543c-0.556-0.272-0.156-0.403-0.987-0.375
					c-0.294-0.322,0.452-0.486,0.697-0.503l-1.937-0.213c0.088,0.701-1.479,0.704-1.403,1.288l2.101-0.727
					c0.087,0.697-1.21,1.987-2.583,1.868c-0.35-0.278,0.258-1.249,0.229-1.482c-0.177,0.242-1.301,0.465-1.427,0.295l0.581-0.377
					c-0.765-0.261-1.244,0.934-2.164,0.271c-0.317-0.043-0.948-0.891-1.002-0.478c0.519,0.791,0.626,3.256,0.284,3.853
					c-0.111-0.054-1.666-0.761-2.028-1.15c-0.523-0.617,0.779-1.482,0.334-2.013c-0.019,0.19-0.306,0.426-0.426,0.501
					c-0.333-0.159,0.136-0.587-0.586-0.494c-0.119,0.701-1.47-0.045-0.34,0.595c-0.707,0.205-0.752-0.138-1.582-0.099
					c0.265,0.447-0.742,1.53-1.45,1.723c0.042-0.175-0.118-0.402-0.196-0.506c-1.449-0.058-2.229-0.361-3.58-0.358
					c-0.125-0.162-0.777-0.35-0.5-0.639c-0.194,0.12-0.372,0.347-0.789,0.367c-0.808-0.561,0.929-0.1,0.313-0.78
					c-0.051,0.386-1.077,0.545-1.67,0.787c0.184,0.583,1.373,0.104,1.966-0.145c0.005,0.824-1.028,1.685-2.44,2.041
					c-1.122,0.187-0.488-0.52-0.683-0.409c-2.109-0.144-1.793,1.352-3.546,0.762c-0.696-0.496-0.034-0.968-0.189-1.321
					c0.915-0.187,1.405,0.313,2.025,0.296l-0.764-0.236c0.291-0.163,0.901-0.292,1.234-0.147c-0.583-0.445-3.563-0.081-5.191-0.464
					c-0.289,0.16-0.787,0.322-0.55,0.508l0.515-0.066c0.474,0.38-0.968,0.517-0.315,0.695c-0.69,0.261-1.463,0.65-2.436,0.426
					l-0.184-0.513c0.021,0.148,0.636,0.313,0.909,0.159c-0.404,0.218-1.493-0.701-1.935-0.045l0.683,0.359
					c-0.692,0.245-1.548,0.745-2.41,0.561c0.393,0.494,0.198-0.051,0.812,0.538c-0.533-0.728,2.205,0.107,1.35-0.68
					c0.63,0.699,1.088,0.317,1.911,0.938c-0.026-0.173-0.292-0.338,0.432-0.229c0.033-0.049,0.109-0.111,0.158-0.147
					c0.022,0.007,0.03,0.009,0.049,0.015l-0.04-0.021c0.031-0.025,0.034-0.031-0.015-0.008c-0.172-0.081-0.312-0.176-0.369-0.273
					c0.358-0.386,1.508-0.352,1.896-0.556c0.43,0.092-0.179,0.2,0.056,0.394l0.58-0.305c0.059,0.396,1.142,0.691,0.132,0.896
					l0.91,0.045c0.536,0.24,1.273,0.356,1.728,0.196c0.43,0.104,1.083-0.43,0.71-0.114l1.427-0.227l0.013,0.106
					c1.409,0.094,2.897-0.663,4.509,0.157c0.474-0.103,0.963-0.232,1.757-0.093l0.155,0.39c0.608-0.125,1.829,0.423,2.09,0.02
					c0.659,1.071,2.955,0.279,4.025,0.473l0.039-0.523c0.737,0.036,1.443-0.11,2.357-0.319l-0.058-0.466
					c0.788-0.382,2.028,0.333,3.275,0.282c-0.084,0.179-0.401,0.133-0.625,0.025c1.493,1.051,3.142-0.78,4.496-0.025
					c0.336-0.172,0.58-0.117,0.817-0.003c-0.031,0.001-0.06,0.01-0.083,0.025c0.034,0.005,0.085,0.005,0.138,0.004
					c0.149,0.078,0.302,0.169,0.468,0.241c-0.141-0.11-0.276-0.202-0.394-0.244c0.26-0.012,0.653-0.074,1.039-0.194l0.166,0.493
					c0.032-0.005,0.056-0.01,0.089-0.016c0.379,0.177,0.304-0.238,0.101-0.608c0.194-0.083,0.372-0.183,0.51-0.304
					c0.31,0.792,1.012-0.278,1.435,0.561c0.259-0.415,1.94-0.34,2.144-1.195c0.014,0.111,0.127,0.163-0.081,0.172
					c0.431,0.093,0.861,0.183,1.247-0.061l0.184,0.606l0.938-0.828c0.572,0.362,0.809,0.567,0.244,1.042
					c1.367-0.735,1.11-0.29,2.272-1.001l-0.056,0.383c0.416-0.022,1.08-0.539,1.332-0.229c0.933,0.697,4.606,0.033,6.998,0.617
					c-0.467-1.026,1.111,0.441,1.204-0.359c0.14,0.24,0.474,0.369,0.087,0.588c1.219-0.262,1.833,0.334,2.674-0.337
					c0.14,0.234-0.261,0.352-0.136,0.489c0.098-0.053,0.387-0.214,0.515-0.076c0.124,0.137-0.179,0.202-0.371,0.31
					c1.245-0.073,1.37-0.793,1.458-1.467c0.633,0.311,0.947,0.26,1.402-0.181c0.221,0.216,0.588,0.437-0.187,0.526
					c0.436,0.028,2.661,0.275,2.704-0.246c0.137,0.131,0.609,0.031,0.724-0.03c0.978,0.021,1.063,0.066,2.022,0.008l-0.266-0.081
					c0.377-0.622,0.797-0.144,1.57-0.225l-0.022,0.063c1.775,0.423,0.766-0.215,2.517,0.266l-0.096-0.373
					c0.161-0.804,1.552,0.461,2.566,0.144l-0.367-0.207c0.554-0.272,1.554,1.059,2.11,1.144c0.122,0.066-0.191,0.112-0.36,0.166
					c1.459,0.436,0.188-0.479,1.273-0.604c0.201,0.252-0.256,0.653,0.476,0.687c0.365,0.194,2.119-0.851,3.118-0.385
					c-0.22-0.188-0.439-0.377,0.065-0.526c0.773-0.074,2.094,0.685,2.791,0.083c0.099,0.05,0.136,0.098,0.14,0.145
					c0.591-0.16,1.922-0.277,2.277-0.593c0.549,1.145,3.675-0.593,3.664,0.454l1.819-0.081l-0.047,0.104
					c1.163,0.049,1.573-0.2,1.981-0.444c0.269,0.065,0.073,0.161,0.051,0.213c1.699,0.179,1.868,0.125,3.292-0.373l0.148,0.312
					c0.386-0.182,2.458,0.445,4.123,0.063c-0.016,0.034-0.05,0.093-0.183,0.137c1.874-0.365,4.491,0.712,5.175-0.334l1.237-0.267
					c-1.602-0.063,0.237-0.441-0.422-0.604c0.629-0.06,1.628,0.294,0.854,0.351l-0.121-0.049c-0.282,0.527,1.989,0.166,1.947,0.515
					c3.15-0.066,6.221,0.153,9.171,0.11l-0.341-0.343l1.029,0.006c0.271,0.077,0.363,0.262-0.371,0.261
					c0.387,0.187,1.231-0.185,1.252-0.257c1.438,0.114-0.561,0.404-0.119,0.406l0.599-0.038l-0.136-0.037
					c0.485-0.147,0.528-0.291,1.41-0.288c0.559,0.057,0.287,0.197,0.507,0.206c-0.001,0.023,0.073,0.032,0.337,0.003l1.297,0.002
					l-0.519-0.242c0.574-0.133,1.219-0.004,0.62-0.279c0.879,0.424,4.837,0.087,5.376,0.207c0.805-0.177,1.6-0.181,2.584-0.176
					c-0.245-0.041-0.393-0.281,0.457-0.258c-0.31,0.492,1.555,0.195,2.242,0.52c-0.614-0.211,2.413-0.098,1.45-0.387
					c0.708,0.027,0.043,0.167,0.581,0.263c1.686-0.195,3.716,0.037,5.799-0.063c0.033-0.05-0.316-0.121,0.13-0.201l1.102,0.223
					c0.411-0.034,0.378-0.279,1.13-0.131c-0.105-0.037-0.265-0.093,0.012-0.112c4.083,0.117,8.342-0.242,12.488-0.06
					c-0.562-0.037-0.188-0.052,0.241-0.062c-0.278-0.006,0.006-0.063-0.049-0.097l1.736,0.06c0.315-0.089,1.86-0.044,2.042-0.118
					l-0.55,0.021c0.73-0.089-1.023-0.182-0.917-0.307c-0.818,0.11-2.159-0.2-3.501-0.04c-0.297-0.034,0.253-0.045,0.094-0.082
					c-0.34,0.059-0.751,0.071-1.513,0.031l0.086-0.016c-2.141-0.007-3.059-0.091-5.463-0.192l0.178,0.106
					c-0.517-0.02-0.625-0.055-0.867-0.085c-0.593,0.154,1.451,0.029,0.911,0.195c-0.686-0.223-3.644-0.035-4.107-0.315
					c-0.795-0.015,0.233,0.143-0.561,0.13l-0.211-0.08l-0.201,0.097c-0.521-0.022-0.784-0.126-0.804-0.194
					c0.126,0.01,0.359-0.012,0.495-0.015c-0.677-0.108-1.905-0.004-2.138-0.039l0.764,0.064c-2.169,0.048-4.818-0.12-6.913,0.05
					l0.159,0.077c-1.6,0.125-1.282-0.098-3.039-0.05l0.063-0.019c-0.352,0.076-0.82,0.113-1.302,0.1
					c0.443-0.091-0.835-0.198-0.254-0.298c-1.734,0.144-0.857,0.116-2.003,0.427l-0.265-0.146c-0.391,0.127-0.423,0.197-1.3,0.232
					c0.719-0.123-0.562-0.23,0.245-0.391c-1.843-0.356-2.734,0.312-3.58-0.196c-0.845,0.43,1.594,0.256,1.121,0.344
					c0.396,0.142-0.697,0.318-1.275,0.274c-0.588-0.009-1.002-0.57-2.481-0.583c0.147,0.004,0.157-0.03,0.304-0.026
					c-0.554-0.125-1.084,0.146-1.765-0.055c-0.38,0.28-0.882-0.028-0.99,0.338l1.357-0.073c-0.77,0.084-1.49,0.515-2.759,0.301
					c0.099-0.076,0.476-0.173,0.735-0.226c-0.371-0.113-0.714,0.068-1.099-0.049c0.108-0.376,1.649-0.067,2.474-0.337
					c-0.398-0.161-1.56,0.246-1.146-0.149c-0.594,0.506-1.458-0.089-2.459,0.299l0.065-0.23c-0.158,0.034-0.486,0.139-0.778,0.13
					l0.527-0.294c-0.811,0.246-1.564-0.255-2.343-0.127c1.63,0.021,0.367,0.293,1.057,0.476c-2.009,0.3-1.158-0.64-3.407-0.567
					c0.305-0.028,1.144,0.168,0.668,0.274c-0.429-0.057-0.995-0.161-1.258-0.297c-1.49,0.026,0.229,0.262-0.404,0.406
					c-0.509-0.314-0.732,0.115-1.386,0.21l-0.005-0.261c-1.699-0.191-0.449,0.543-1.979,0.325l0.646-0.363l-0.797,0.085l0.163-0.302
					c-0.867,0.213-1.137,0.153-1.987,0.052c0.198,0.196-0.109,0.497-0.861,0.5c-0.514-0.17,0.286-0.261-0.78-0.233
					c0.24-0.173,0.504-0.387,0.968-0.125c0.048-0.09,0.237-0.17,0.286-0.258c-0.553-0.198-1.389-0.067-1.774-0.07
					c0.148,0.013,0.326,0.031,0.417,0.073l-1.545,0.372c-0.243-0.11-0.051-0.194,0.141-0.276c-0.313,0.026-0.529,0.155-0.99,0.175
					c0.119-0.233,0.09-0.477,0.741-0.574l-1.473,0.236c-0.099-0.104-0.757-0.296-0.565-0.381c-0.817-0.16-2.002,0.432-3.086,0.227
					c-0.056,0.047-0.169,0.091-0.398,0.124c-1.018-0.068-1.92-0.396-3.125-0.065l-0.686-0.472c-0.944,0.09,0.928,0.594-0.645,0.749
					c-1.113,0.136-0.417-0.403-0.808-0.539c-0.554,0.225-1.515,0.704-2.539,0.304C637.886,317.459,638.151,317.533,638.468,317.502z
					 M626.818,317.593c0.226-0.073,0.675-0.3,0.841-0.087C627.403,317.913,627.203,317.716,626.818,317.593z M609.112,318.396
					c0.167-0.135,0.427-0.065,0.721,0.09C609.62,318.519,609.38,318.503,609.112,318.396z M559.791,321.513
					c0.009-0.007,0.016-0.012,0.024-0.021C560.318,321.675,560.14,321.604,559.791,321.513z M558.744,321.301
					c-0.104,0.058-0.097,0.117-0.053,0.179c0.073-0.107,0.308-0.109,0.575-0.072C559.192,321.292,559.057,321.212,558.744,321.301z
					 M671.022,319.965l-0.204-0.052C671.278,319.843,671.149,319.901,671.022,319.965z"/>
				<path d="M611.119,317.855c0.063,0.069,0.081,0.144,0.097,0.22C611.305,318.008,611.306,317.93,611.119,317.855z"/>
				<path d="M645.712,317.44l0.035,0.004c0.02-0.018,0.03-0.036,0.036-0.054L645.712,317.44z"/>
				<path d="M574.93,317.334c0.215,0.069,0.336,0.159,0.416,0.252C575.357,317.464,575.259,317.363,574.93,317.334z"/>
				<path d="M553.205,321.832l0.67-0.077c-0.324,0.007-0.44-0.084-0.604-0.153C553.286,321.695,553.415,321.834,553.205,321.832z"/>
				<path d="M547.386,319.403c-0.098,0.043-0.208,0.005-0.304,0.049l0.027,0.162C547.526,319.605,547.817,319.471,547.386,319.403z"
					/>
				<path d="M552.582,320.507c-0.054-0.33-0.474-0.223-0.943-0.17c0.028,0,0.055-0.003,0.083,0.001
					C551.585,320.789,552.084,320.65,552.582,320.507z"/>
				<path d="M551.53,320.346c-0.145,0.013-0.292,0.019-0.434,0.001C551.042,320.526,551.272,320.388,551.53,320.346z"/>
				<path d="M557.419,321.505c-0.223-0.098-0.139,0.45-0.265,0.301C556.907,322.254,558.636,321.302,557.419,321.505z"/>
				<polygon points="552.199,319.424 552.368,319.828 552.63,319.501 				"/>
				<path d="M555.904,319.729l-0.75-0.119c0.012,0.071-0.083,0.113-0.2,0.145C555.416,319.769,555.922,319.856,555.904,319.729z"/>
				<path d="M554.954,319.754c-0.241-0.009-0.47,0-0.603,0.067C554.48,319.818,554.761,319.805,554.954,319.754z"/>
				<polygon points="553.223,319.297 553.445,319.382 553.975,319.411 				"/>
				<path d="M563.962,319.834l0.818-0.136c0.083-0.165-0.14-0.265-0.445-0.199C564.14,319.613,563.836,319.676,563.962,319.834z"/>
				<path d="M561.485,318.56c0.222,0.094,0.237,0.197,0.362,0.35l0.023-0.577L561.485,318.56z"/>
				<path d="M563.87,318.394c0.082-0.164,1.187-0.49,0.149-0.435C563.937,318.123,563.118,318.27,563.87,318.394z"/>
				<polygon points="576.199,319.084 575.991,319.093 576.024,320.146 				"/>
				<path d="M587.058,316.551c-0.97-0.261-0.229,0.645-1.105,0.325c-0.227,0.248,0.717,0.26,0.484,0.474
					C587.021,317.091,587.328,317.242,587.058,316.551z"/>
				<path d="M586.436,317.35c-0.094,0.041-0.193,0.091-0.298,0.159C586.307,317.443,586.387,317.394,586.436,317.35z"/>
				<polygon points="709.082,319.292 709.706,319.298 709.304,319.271 				"/>
				<path d="M710.279,319.18l0.146,0.064l0.375-0.068C710.659,319.181,710.386,319.193,710.279,319.18z"/>
				<path d="M625.084,316.591l-0.047,0.117c0.097,0.129,0.242,0.141,0.535,0.165L625.084,316.591z"/>
				<polygon points="633.54,317.08 633.395,317.068 633.668,317.486 				"/>
				<path d="M640.636,316.696c-0.29-0.023-0.63,0.057-0.921,0.035C640.346,316.674,640.715,317.183,640.636,316.696z"/>
			</g>
		</g>
	</g>
</g>
</svg>
